<svg id="Capa_1" data-name="Capa 1" xmlns="http://www.w3.org/2000/svg" viewBox="0 0 512 512"><defs><style>.cls-1{fill:#fff;}</style></defs><title>clock</title><path class="cls-1" d="M256,0C114.84,0,0,114.84,0,256S114.84,512,256,512,512,397.16,512,256,397.16,0,256,0Zm0,457.53c-111.12,0-201.53-90.4-201.53-201.53S144.88,54.47,256,54.47,457.53,144.87,457.53,256,367.12,457.53,256,457.53Z" transform="translate(0 0)"/><path class="cls-1" d="M389.42,248.1h-115V109.77a21.08,21.08,0,1,0-42.16,0V269.17a21.08,21.08,0,0,0,21.08,21.08H389.42A21.08,21.08,0,0,0,389.42,248.1Z" transform="translate(0 0)"/></svg>