<svg id="Capa_1" data-name="Capa 1" xmlns="http://www.w3.org/2000/svg" viewBox="0 0 509.86 512"><defs><style>.cls-1{fill:#fff;}</style></defs><title>co2</title><rect class="cls-1" x="478" y="480.13" width="31.87" height="31.87"/><rect class="cls-1" y="480.13" width="31.87" height="31.87"/><polygon class="cls-1" points="254.93 0 0 135.97 0 448.27 31.87 448.27 31.87 155.09 254.93 36.14 478 155.09 478 448.27 509.87 448.27 509.87 135.97 254.93 0"/><path class="cls-1" d="M120.57,193.33A55.77,55.77,0,0,0,64.8,249.1v63.73a55.77,55.77,0,1,0,111.53,0v-8H144.47v8a23.9,23.9,0,0,1-47.8,0V249.1a23.9,23.9,0,1,1,47.8,0v8h31.87v-8A55.77,55.77,0,0,0,120.57,193.33Z" transform="translate(-1.07)"/><path class="cls-1" d="M264,193.33A55.77,55.77,0,0,0,208.2,249.1v63.73a55.77,55.77,0,0,0,111.53,0V249.1A55.77,55.77,0,0,0,264,193.33Zm23.9,119.5a23.9,23.9,0,0,1-47.8,0V249.1a23.9,23.9,0,0,1,47.8,0v63.73Z" transform="translate(-1.07)"/><path class="cls-1" d="M391.43,304.87a55.77,55.77,0,0,0-55.77,55.77v8h31.87v-8a23.91,23.91,0,1,1,47.8-1l-79.67,47.8v40.87H447.2V416.4H382.57l64.63-38.78v-17A55.77,55.77,0,0,0,391.43,304.87Z" transform="translate(-1.07)"/></svg>