<svg id="Capa_1" data-name="Capa 1" xmlns="http://www.w3.org/2000/svg" viewBox="0 0 512 511.95"><defs><style>.cls-1{fill:#fff;}</style></defs><title>feed</title><path class="cls-1" d="M329.35,123.27a115.87,115.87,0,0,0-163.88,0L33.86,254.88a116,116,0,0,0,0,163.88L93.15,478A115.82,115.82,0,0,0,257,478L388.63,346.41a115.82,115.82,0,0,0,0-163.88Zm42.07,181.51-53.57-53.59A19.73,19.73,0,0,0,290,279.1L345,334.18l-31.28,31.28-55.09-55.09a19.72,19.72,0,1,0-27.89,27.89l55.09,55.09L254.6,424.63l-55.11-55.11a19.72,19.72,0,0,0-27.89,27.89l54.85,54.85c-29.23,26.45-77.35,25.9-105.42-2.19L61.75,390.82a76.54,76.54,0,0,1,0-108.08L193.36,151.15a76.45,76.45,0,0,1,108.1,0l59.27,59.27A75.9,75.9,0,0,1,371.42,304.77ZM485,77.39c-6.47,6.47-5.07,19.23-2.52,23.35,15.17,24.52,12.27,47.1-10.28,69.64L449.4,193.2c-10.1,10.14-33.29-14.26-62.56-43.51l-24.48-24.5C333.1,96,307.89,73.64,318.86,62.64L341.68,39.8C364,17.49,386.27,14.32,410.61,29.11c4.36,2.66,17.63,4.4,24.06-2.07S456.13,5.58,456.13,5.58c9.39-9.41,21.08-5.92,30.53,3.51l16.29,16.33c9.41,9.39,12.9,21.14,3.49,30.51C506.44,55.93,491.45,70.92,485,77.39Z" transform="translate(0.01 -0.03)"/></svg>