<svg id="Capa_1" data-name="Capa 1" xmlns="http://www.w3.org/2000/svg" viewBox="0 0 341.34 512"><defs><style>.cls-1{fill:#fff;}</style></defs><title>lb</title><path class="cls-1" d="M411.82,87.83a142.53,142.53,0,0,0-39-47.33,193.87,193.87,0,0,0-54.66-29.67,183.87,183.87,0,0,0-124.34,0A193.73,193.73,0,0,0,139.16,40.5a142.56,142.56,0,0,0-39,47.33,131.23,131.23,0,0,0-14.83,61.5q0,51.67,34.34,89.33,15,16.33,24.83,29a212,212,0,0,1,19.84,31.83q10,19.17,11.33,35.84Q160,344.67,160,362.67A30.34,30.34,0,0,0,168.34,384,30.34,30.34,0,0,0,160,405.34q0,17.33,15,27A31.42,31.42,0,0,0,170.67,448q0,15.33,10.5,23.67T207,480a53.8,53.8,0,0,0,20,23.33,52.87,52.87,0,0,0,58,0A53.79,53.79,0,0,0,305,480q15.33,0,25.83-8.33T341.33,448A31.42,31.42,0,0,0,337,432.34q15-9.67,15-27A30.36,30.36,0,0,0,343.66,384,30.36,30.36,0,0,0,352,362.67q0-18-15.67-27.34,1.34-16.67,11.33-35.84t19.84-31.83q9.84-12.67,24.83-29,34.33-37.67,34.34-89.33A131.15,131.15,0,0,0,411.82,87.83Zm-50.49,121.5q-3.34,3.67-10.17,11t-10.16,11q-42.66,51-47,99.33H218q-4.33-48.33-47-99.33-3.33-3.67-10.17-11t-10.17-11Q128,183,128,149.33a90.39,90.39,0,0,1,11.5-44.67,101.49,101.49,0,0,1,30-33.83,154.32,154.32,0,0,1,41-20.67,141.79,141.79,0,0,1,91,0,154.43,154.43,0,0,1,41,20.67,101.4,101.4,0,0,1,30,33.83A90.44,90.44,0,0,1,384,149.33Q384,183,361.33,209.33Z" transform="translate(-85.33)"/><path class="cls-1" d="M289.16,101.33A107.22,107.22,0,0,0,256,96a10.67,10.67,0,0,0,0,21.33q17.34,0,35.34,8.33t18,23.67a10.66,10.66,0,0,0,21.33,0,41.28,41.28,0,0,0-12.5-30A70.8,70.8,0,0,0,289.16,101.33Z" transform="translate(-85.33)"/></svg>