<svg id="Capa_1" data-name="Capa 1" xmlns="http://www.w3.org/2000/svg" viewBox="0 0 511.99 512"><defs><style>.cls-1{fill:#fff;}</style></defs><title>ser</title><path class="cls-1" d="M510.39,227.58c-0.81-7.2-9.2-12.61-16.46-12.61-23.46,0-44.28-13.77-53-35.08a57,57,0,0,1,14.31-63.3,14.23,14.23,0,0,0,1.56-19.31,253.43,253.43,0,0,0-40.56-41,14.26,14.26,0,0,0-19.46,1.57c-15.26,16.9-42.67,23.18-63.85,14.34a56.86,56.86,0,0,1-34.58-55.58,14.21,14.21,0,0,0-12.57-15,255.47,255.47,0,0,0-57.6-.15A14.25,14.25,0,0,0,215.53,16.2a57,57,0,0,1-35.06,54.62c-20.93,8.55-48.15,2.32-63.37-14.43a14.27,14.27,0,0,0-19.32-1.62A254.49,254.49,0,0,0,56.37,95.71a14.24,14.24,0,0,0,1.53,19.45A56.73,56.73,0,0,1,72.21,179c-8.83,21-30.69,34.6-55.7,34.6A13.93,13.93,0,0,0,1.71,226.22a256.62,256.62,0,0,0-.11,58.21C2.41,291.66,11.06,297,18.39,297c22.3-.57,43.69,13.23,52.68,35.08a57,57,0,0,1-14.32,63.31,14.21,14.21,0,0,0-1.55,19.28,254.33,254.33,0,0,0,40.49,41,14.24,14.24,0,0,0,19.49-1.54c15.32-16.94,42.72-23.21,63.82-14.35a56.78,56.78,0,0,1,34.64,55.56,14.21,14.21,0,0,0,12.56,15,254.9,254.9,0,0,0,57.6.16,14.25,14.25,0,0,0,12.67-14.66,56.9,56.9,0,0,1,35-54.59c21.07-8.6,48.16-2.31,63.4,14.42a14.3,14.3,0,0,0,19.32,1.62,254.82,254.82,0,0,0,41.41-40.95,14.22,14.22,0,0,0-1.53-19.46A56.72,56.72,0,0,1,439.76,333a57.3,57.3,0,0,1,52.37-34.7l3.17,0.08a14.25,14.25,0,0,0,15-12.56A255.5,255.5,0,0,0,510.39,227.58ZM256,403.59a147.58,147.58,0,1,1,126.71-71.91L318.09,267A90.53,90.53,0,0,0,210.9,144.43a10.25,10.25,0,0,0-7.09,7.14,10,10,0,0,0,2.84,9.78s31.9,32.15,42.58,42.82c1.12,1.12,1.12,3.79,1,4.75l-0.1.7c-1.08,11.74-3.15,25.82-4.86,31.24l-0.68.66-0.71.73c-5.48,1.76-19.79,3.86-31.71,4.93V247.1l-0.54.14a4.64,4.64,0,0,1-.51,0,6.82,6.82,0,0,1-4.91-2.08c-11.11-11.11-41.76-41.55-41.76-41.55a10.42,10.42,0,0,0-7.45-3.32,10.13,10.13,0,0,0-9.54,7.71A90.54,90.54,0,0,0,270.09,315l65.33,65.33A146.84,146.84,0,0,1,256,403.59Z" transform="translate(0 0)"/></svg>