<svg id="Capa_1" data-name="Capa 1" xmlns="http://www.w3.org/2000/svg" viewBox="0 0 55 135"><defs><style>.cls-1{fill:#fff;}</style></defs><title>tm</title><path class="cls-1" d="M258.17,279.32V205.4c0-9.34-8.23-16.9-18.33-16.9S221.5,196,221.5,205.4v73.92a24.42,24.42,0,0,0-9.17,18.87c0,14,12.32,25.31,27.5,25.31s27.5-11.34,27.5-25.31A24.41,24.41,0,0,0,258.17,279.32Zm-18.33,35.75c-10.12,0-18.33-7.56-18.33-16.87a16.69,16.69,0,0,1,9.17-14.62V205.4c0-4.67,4.11-8.46,9.17-8.46s9.17,3.78,9.17,8.46v78.17a16.68,16.68,0,0,1,9.17,14.62C258.17,307.51,250,315.06,239.83,315.06Z" transform="translate(-212.33 -188.5)"/><path class="cls-1" d="M244.34,286.23a3.34,3.34,0,0,0,.07-0.71V243.36a4.6,4.6,0,0,0-9.17,0v42.16a4.05,4.05,0,0,0,.06.71,12.78,12.78,0,0,0-9.23,12c0,7,6.16,12.66,13.75,12.66s13.75-5.67,13.75-12.66A12.78,12.78,0,0,0,244.34,286.23Z" transform="translate(-212.33 -188.5)"/></svg>